{"title":"Comedy Nights With Kapil - Kapil ke Ghar, Sapno Ki Rani ( Queen)","uid":9772377,"size":1204506056,"categoryP":"video","categoryS":"hd___tv_shows","magnet":"?xt=urn:btih:1f2508e2882c754d248a7be63b50dd8afb555b97&amp;dn=Comedy+Nights+With+Kapil+-+Kapil+ke+Ghar%2C+Sapno+Ki+Rani+%28+Queen%29&amp;tr=udp%3A%2F%2Ftracker.openbittorrent.com%3A80&amp;tr=udp%3A%2F%2Fopen.demonii.com%3A1337&amp;tr=udp%3A%2F%2Ftracker.coppersurfer.tk%3A6969&amp;tr=udp%3A%2F%2Fexodus.desync.com%3A6969","seeders":1,"leechers":0,"uploader":"dkt369","files":8,"time":1394928757,"description":"Plot\nThe roller coaster of laughs and fun starts with Kapil speaking on the various kinds of job and work he has adopted over a period of time, and has failed miserably. Kapil then asks the audience to share their experiences in various fields. Later, Kapil makes an announcement that he has decided to rob a bank and has asked his family members to share ideas on how to rob a bank. He calls out to his family members and Palak, Dadi and Raju appear on the scene, and spell out their ideas. Later, Kangana Ranaut, Rajkumar and the director, Vikas Bahl join Kapil onstage to promote their movie - Queen. Watch the show and enjoy.\n\nGeneral \nComplete name : Comedy Nights With Kapil - Kapil ke Ghar, Sapno Ki Rani ( Queen) - 9th March 2014 - Full Episode.mp4 \nFormat : MPEG-4 \nFormat profile : Base Media / Version 2 \nCodec ID : mp42 \nFile size : 1.12 GiB \nDuration : 59mn 59s \nOverall bit rate mode : Variable \nOverall bit rate : 2 661 Kbps \nEncoded date : UTC 2014-03-10 21:13:37 \nTagged date : UTC 2014-03-10 21:13:37 \ngsst : 0 \ngstd : 3600021 \ngssd : BADC234C1HH1394955316632476 \ngshh : r4---sn-cvh7zn7k.googlevideo.com \n\nVideo \nID : 1 \nFormat : AVC \nFormat/Info : Advanced Video Codec \nFormat profile : &lt;a class=&quot;__cf_email__&quot; href=&quot;/cdn-cgi/l/email-protection&quot; data-cfemail=&quot;dc94b5bbb49c90eff2ed&quot;&gt;[email&amp;#160;protected]&lt;/a&gt;&lt;script cf-hash='f9e31' type=&quot;text/javascript&quot;&gt;\n/* &lt;![CDATA[ */!function(){try{var t=&quot;currentScript&quot;in document?document.currentScript:function(){for(var t=document.getElementsByTagName(&quot;script&quot;),e=t.length;e--;)if(t[e].getAttribute(&quot;cf-hash&quot;))return t[e]}();if(t&amp;&amp;t.previousSibling){var e,r,n,i,c=t.previousSibling,a=c.getAttribute(&quot;data-cfemail&quot;);if(a){for(e=&quot;&quot;,r=parseInt(a.substr(0,2),16),n=2;a.length-n;n+=2)i=parseInt(a.substr(n,2),16)^r,e+=String.fromCharCode(i);e=document.createTextNode(e),c.parentNode.replaceChild(e,c)}}}catch(u){}}();/* ]]&gt; */&lt;/script&gt; \nFormat settings, CABAC : Yes \nFormat settings, ReFrames : 1 frame \nFormat settings, GOP : M=1, N=60 \nCodec ID : avc1 \nCodec ID/Info : Advanced Video Coding \nDuration : 59mn 59s \nBit rate : 2 466 Kbps \nMaximum bit rate : 5 202 Kbps \nWidth : 1 280 pixels \nHeight : 720 pixels \nDisplay aspect ratio : 16:9 \nFrame rate mode : Constant \nFrame rate : 25.000 fps \nColor space : YUV \nChroma subsampling : 4:2:0 \nBit depth : 8 bits \nScan type : Progressive \nBits/(Pixel*Frame) : 0.107 \nStream size : 1.03 GiB (93%) \nTagged date : UTC 2014-03-10 21:16:45 \n\nAudio \nID : 2 \nFormat : AAC \nFormat/Info : Advanced Audio Codec \nFormat profile : LC \nCodec ID : 40 \nDuration : 59mn 59s \nBit rate mode : Variable \nBit rate : 192 Kbps \nMaximum bit rate : 201 Kbps \nChannel(s) : 2 channels \nChannel positions : Front: L R \nSampling rate : 44.1 KHz \nCompression mode : Lossy \nStream size : 82.4 MiB (7%) \nTitle : IsoMedia File Produced by Google, 5-11-2011 \nEncoded date : UTC 2014-03-10 21:15:40 \nTagged date : UTC 2014-03-10 21:16:45","torrent":{"xt":"urn:btih:1f2508e2882c754d248a7be63b50dd8afb555b97","amp;dn":"Comedy+Nights+With+Kapil+-+Kapil+ke+Ghar%2C+Sapno+Ki+Rani+%28+Queen%29","amp;tr":["udp%3A%2F%2Ftracker.openbittorrent.com%3A80","udp%3A%2F%2Fopen.demonii.com%3A1337","udp%3A%2F%2Ftracker.coppersurfer.tk%3A6969","udp%3A%2F%2Fexodus.desync.com%3A6969"],"infoHash":"1f2508e2882c754d248a7be63b50dd8afb555b97","infoHashBuffer":{"type":"Buffer","data":[31,37,8,226,136,44,117,77,36,138,123,230,59,80,221,138,251,85,91,151]},"announce":[],"urlList":[]}}